# xmcd
#
# Track frame offsets: 
#        150
#        20793
#        37146
#        59816
#        74550
#        94102
#        109344
#        128670
#        150765
#        162507
#        181140
#        199925
#        220310
#        238859
#        254012
#        280631
#
# Disc length: 3991 seconds
#
# Revision: 0
# Processed by: cddbd v1.5PL3 Copyright (c) Steve Scherf et al.
# Submitted via: ExactAudioCopy v0.95a3
#
DISCID=f50f9510
DTITLE=Sue Keller - Those Irresistible Blues
DYEAR=1999
DGENRE=Blues
TTITLE0=Dallas Blues
TTITLE1=Memphis Blues
TTITLE2=St. Louis Blues
TTITLE3=Kitten on the Keys
TTITLE4=Blues My Naughty Sweety Gives Me
TTITLE5=Sugar Blues
TTITLE6=Arkansas Blues
TTITLE7=Home Again Blues
TTITLE8=Royal Garden Blues
TTITLE9=Irresistible Blues
TTITLE10=The Fives
TTITLE11=Low Down Papa
TTITLE12=Cruel Back-Bitin' Blues
TTITLE13=I Just Want a Daddy
TTITLE14=Aggravatin' Papa
TTITLE15=Snowy Morning Blues
EXTD=
EXTT0=
EXTT1=
EXTT2=
EXTT3=
EXTT4=
EXTT5=
EXTT6=
EXTT7=
EXTT8=
EXTT9=
EXTT10=
EXTT11=
EXTT12=
EXTT13=
EXTT14=
EXTT15=
PLAYORDER=
